<svg width="50" height="50" viewBox="0 0 50 50" fill="none" xmlns="http://www.w3.org/2000/svg">
<path d="M15 35H45V5H40V22.5L33.75 18.75L27.5 22.5V5H15V35ZM15 40C13.625 40 12.4479 39.5104 11.4688 38.5312C10.4896 37.5521 10 36.375 10 35V5C10 3.625 10.4896 2.44792 11.4688 1.46875C12.4479 0.489583 13.625 0 15 0H45C46.375 0 47.5521 0.489583 48.5312 1.46875C49.5104 2.44792 50 3.625 50 5V35C50 36.375 49.5104 37.5521 48.5312 38.5312C47.5521 39.5104 46.375 40 45 40H15ZM5 50C3.625 50 2.44792 49.5104 1.46875 48.5312C0.489583 47.5521 0 46.375 0 45V10H5V45H40V50H5Z" fill="black"/>
</svg>
